<svg version="1.0" xmlns="http://www.w3.org/2000/svg" width="264.0pt" height="264.0pt" viewBox="0 0 264.0 264.0" preserveAspectRatio="xMidYMid meet">
<g transform="translate(0.0,264.0) scale(0.1,-0.1)" fill="white" stroke="none"><path d="M40 1320 l0 -1280 320 0 320 0 0 960 0 960 960 0 960 0 0 320 0 320 -1280 0 -1280 0 0 -1280z m2530 966 c0 -250 -2 -285 -16 -290 -9 -3 -432 -6 -942 -6 -847 0 -927 -1 -944 -17 -17 -15 -18 -58 -18 -944 0 -510 -3 -934 -6 -943 -5 -14 -40 -16 -290 -16 l-284 0 0 1243 c0 684 3 1247 7 1250 3 4 566 7 1250 7 l1243 0 0 -284z"/><path d="M1000 1320 l0 -320 800 0 800 0 0 320 0 320 -800 0 -800 0 0 -320z m1568 -2 l2 -288 -756 0 c-550 0 -760 3 -770 11 -11 9 -14 65 -14 280 0 245 2 269 18 278 11 7 270 10 767 8 l750 -2 3 -287z"/><path d="M1000 360 l0 -320 800 0 800 0 0 320 0 320 -800 0 -800 0 0 -320z m1553 281 c16 -1 17 -22 17 -286 l0 -285 -767 2 -768 3 0 280 0 280 90 5 c76 4 1376 6 1428 1z"/></g></svg>
