 <svg version="1.0" xmlns="http://www.w3.org/2000/svg"  width="120.0pt" height="120.0pt" viewBox="0 0 120.0 120.0"  preserveAspectRatio="xMidYMid meet"><g transform="translate(0.0,120.0) scale(0.05,-0.05)" fill="white" stroke="none"><path d="M364 2098 c201 -166 464 -382 583 -481 272 -225 240 -219 404 -81 76 64 344 285 595 490 l456 374 -198 0 -197 0 -405 -332 -404 -331 -84 69 c-46 38 -228 187 -403 332 l-319 262 -197 0 -198 0 367 -302z"/><path d="M104 1784 l-106 -94 355 -290 c195 -159 465 -382 600 -494 l246 -205 367 305 c201 167 471 390 600 494 l233 190 -104 94 c-132 119 -96 128 -370 -101 -129 -108 -345 -288 -480 -400 l-245 -203 -484 400 c-267 220 -490 400 -496 399 -5 0 -58 -43 -116 -95z"/><path d="M129 1098 c-54 -45 -106 -88 -115 -97 -9 -9 108 -118 260 -242 152 -125 422 -347 600 -494 l324 -267 602 495 c572 470 600 497 563 526 -21 17 -74 59 -116 94 l-78 63 -485 -400 c-441 -363 -489 -398 -520 -371 -19 16 -218 180 -444 365 -226 184 -428 352 -451 372 -40 36 -43 36 -140 -44z"/></g></svg>